<!-- Card.svg -->
<svg xmlns="http://www.w3.org/2000/svg" viewBox="0 0 144 200">
      <g id="Layer_2" data-name="Layer 2">
        <g id="Layer_1-2" data-name="Layer 1">
          <rect fill="#fff4d4" x="0.5" y="0.5" width="143" height="199" rx="13.86" />
          <path
            fill="#b48400"
            d="M129.64,1A13.37,13.37,0,0,1,143,14.36V185.64A13.37,13.37,0,0,1,129.64,199H14.36A13.37,13.37,0,0,1,1,185.64V14.36A13.37,13.37,0,0,1,14.36,1H129.64m0-1H14.36A14.36,14.36,0,0,0,0,14.36V185.64A14.36,14.36,0,0,0,14.36,200H129.64A14.36,14.36,0,0,0,144,185.64V14.36A14.36,14.36,0,0,0,129.64,0Z"
          />
        </g>
      </g>
    </svg>
